<svg xmlns="http://www.w3.org/2000/svg" id="Layer_1" version="1.1" viewBox="0 0 1000 771.42">
    <defs>
        <style>
            .st0 {
                fill: #212125
            }
        </style>
    </defs>
    <path
        d="M383.09 211.06v99.77c0 11.45 4.45 21.19 11.92 28.74 7.51 7.51 17.34 11.91 28.74 11.91h14.6l-9.78 9.27-9.64 9.13-45.2 42.84-7.37 7.05-7.37 6.95c-2.74-1.21-5.42-2.6-8.16-4.27-6.63-4.03-13.35-9.6-22.58-18.87-22.76-22.76-36.95-54.48-36.95-89.2V211.04c0-34.63 14.14-66.39 36.95-89.11v-.05c22.63-22.67 54.24-36.81 88.83-36.86H666v85.4H423.76c-11.41.05-21.23 4.4-28.74 11.92-7.46 7.6-11.92 17.34-11.92 28.7Z"
        class="st0" />
    <path
        d="M666.35 224.51v207.7h-81.74v-69.82l-75.94 69.82h-111l133.02-125.97h-71.17v-81.73h206.83zM135.77 672.66c0-12.06 9.13-20.19 20.84-20.19 9.72 0 14.75 5.33 17.33 10.47l-8.67 4.1c-1.29-3.1-4.62-5.68-8.66-5.68-6.09 0-10.59 4.91-10.59 11.3s4.51 11.3 10.59 11.3c4.04 0 7.37-2.58 8.66-5.68l8.67 4.1c-2.52 5.03-7.61 10.47-17.33 10.47-11.7 0-20.84-8.19-20.84-20.19ZM211.38 652.47c11.94 0 20.84 8.31 20.84 20.19s-8.9 20.19-20.84 20.19-20.9-8.31-20.9-20.19 8.96-20.19 20.9-20.19Zm0 8.89c-6.5 0-10.65 4.91-10.65 11.3s4.15 11.3 10.65 11.3 10.59-4.98 10.59-11.3-4.15-11.3-10.59-11.3ZM285.05 692.15v-26.34l-9.89 26.34h-4.45l-9.83-26.34v26.34h-10.07v-39.04h13.99l8.13 22.12 8.19-22.12h13.99v39.04h-10.07ZM350.79 692.15v-26.34l-9.89 26.34h-4.45l-9.83-26.34v26.34h-10.07v-39.04h13.99l8.13 22.12 8.19-22.12h13.99v39.04h-10.07ZM381.82 653.11h10.24v22.88c0 4.63 2.45 7.96 7.9 7.96s7.84-3.34 7.84-7.96v-22.88h10.24v23.18c0 9.72-5.56 16.56-18.09 16.56s-18.14-6.9-18.14-16.5v-23.24ZM465.49 692.15l-16.5-23.59v23.59h-10.07v-39.04h10.36l15.8 22.47v-22.47h10.13v39.04h-9.72ZM496.57 692.15v-39.04h10.07v39.04h-10.07ZM525.7 672.66c0-12.06 9.13-20.19 20.84-20.19 9.72 0 14.75 5.33 17.33 10.47l-8.67 4.1c-1.29-3.1-4.62-5.68-8.66-5.68-6.09 0-10.59 4.91-10.59 11.3s4.51 11.3 10.59 11.3c4.04 0 7.37-2.58 8.66-5.68l8.67 4.1c-2.52 5.03-7.61 10.47-17.33 10.47-11.7 0-20.84-8.19-20.84-20.19ZM609.12 692.15l-1.99-5.91h-16.22l-1.99 5.91h-10.95l14.69-39.04h12.64l14.75 39.04H609.1Zm-10.13-30.26-5.44 15.86h10.95l-5.5-15.86ZM642.55 692.15v-30.26H631.6v-8.78h31.9v8.78h-10.89v30.26h-10.07ZM683.01 692.15v-39.04h10.07v39.04h-10.07ZM732.75 652.47c11.94 0 20.84 8.31 20.84 20.19s-8.9 20.19-20.84 20.19-20.9-8.31-20.9-20.19 8.96-20.19 20.9-20.19Zm0 8.89c-6.5 0-10.65 4.91-10.65 11.3s4.15 11.3 10.65 11.3 10.59-4.98 10.59-11.3-4.15-11.3-10.59-11.3ZM797.63 692.15l-16.5-23.59v23.59h-10.07v-39.04h10.36l15.8 22.47v-22.47h10.13v39.04h-9.72ZM831.37 679.1c2.8 2.81 7.14 5.15 12.46 5.15 3.45 0 5.56-1.46 5.56-3.34 0-2.22-2.51-3.1-6.67-3.98-6.44-1.29-15.45-2.93-15.45-12.18 0-6.55 5.56-12.23 15.57-12.23 6.26 0 11.7 1.87 15.86 5.44l-5.5 7.2c-3.27-2.69-7.55-4.04-11-4.04s-4.62 1.35-4.62 3.04c0 2.05 2.4 2.75 6.73 3.57 6.44 1.35 15.33 3.22 15.33 12.06 0 7.85-5.79 13.05-16.27 13.05-7.9 0-13.41-2.46-17.33-6.2l5.33-7.55ZM252.82 587.39c5.65-1.11 10.13-3.14 13.15-6.29 4.68-4.87 7.02-11.46 7.02-19.74s-2.21-15.02-6.63-20.07c-4.43-5.04-11.87-7.57-22.35-7.57h-63.08v86.55h28.2v-31.86h15.23l19.52 31.86h31.03l-22.09-32.88Zm-43.68-35.01h25.07c3.76 0 6.45.79 8.07 2.37 1.63 1.58 2.44 3.95 2.44 7.11s-.8 5.54-2.41 7.12c-1.6 1.58-4.3 2.37-8.11 2.37h-25.07v-18.98ZM372.43 543.82c-8.34-7.24-21.33-10.87-38.98-10.87s-30.59 3.62-38.95 10.87c-8.36 7.25-12.53 18.3-12.53 33.18s4.18 26 12.53 33.24c8.36 7.25 21.34 10.87 38.95 10.87s30.64-3.62 38.98-10.87c8.34-7.24 12.5-18.32 12.5-33.24s-4.17-25.93-12.5-33.18Zm-21.96 53.85c-4.26 3.18-9.93 4.77-17.02 4.77s-12.77-1.59-17.02-4.77c-4.25-3.19-6.38-10.08-6.38-20.68s2.13-17.59 6.38-20.7 9.92-4.68 17.02-4.68 12.77 1.56 17.02 4.68c4.25 3.12 6.38 10.02 6.38 20.7s-2.13 17.49-6.38 20.68ZM465.51 583.09c0 6.8-1.61 11.66-4.84 14.62-3.23 2.95-8.52 4.42-15.87 4.42s-12.68-1.48-15.86-4.46c-3.19-2.97-4.78-7.83-4.78-14.58v-49.36h-28.2v52.06c0 12.65 4.07 21.65 12.21 26.99s20.35 8.01 36.63 8.01 28.55-2.67 36.67-8.01c8.12-5.34 12.18-14.34 12.18-26.99v-52.06h-28.14v49.36ZM588.94 599.23l-35.09-65.51h-45.84v86.55h28.08v-67.43l36.03 67.43h45.07v-86.55h-28.08l-.17 65.51zM718.96 610.27c6.52-6.67 9.78-17.78 9.78-33.33s-3.26-26.7-9.78-33.31c-6.51-6.61-16.59-9.91-30.22-9.91H632.9v86.55h55.84c13.63 0 23.71-3.33 30.22-10Zm-57.99-8.65v-49.24h20.58c6.5 0 11.29 1.42 14.39 4.27 3.1 2.84 4.65 9.61 4.65 20.29s-1.55 17.58-4.65 20.41c-3.1 2.84-7.9 4.27-14.39 4.27h-20.58ZM739.06 620.27h80.07v-18.65h-51.87v-16.16h47.64V567.9h-47.64v-15.52h51.87v-18.66h-80.07v86.55zM918.78 543.63c-6.51-6.61-16.59-9.91-30.22-9.91h-55.84v86.55h55.84c13.63 0 23.71-3.33 30.22-10 6.52-6.67 9.78-17.78 9.78-33.33s-3.26-26.7-9.78-33.31Zm-23.01 53.72c-3.1 2.84-7.9 4.27-14.39 4.27H860.8v-49.24h20.58c6.5 0 11.29 1.42 14.39 4.27 3.1 2.84 4.65 9.61 4.65 20.29s-1.55 17.58-4.65 20.41ZM104.19 556.62c-3.06 2.88-4.63 9.69-4.63 20.44s1.56 17.44 4.63 20.31c3.13 2.81 7.94 4.25 14.44 4.25h20.57v-13.56h-16.19v-18h44.26v50.19h-55.82c-13.63 0-23.69-3.25-30.25-9.88-6.5-6.63-9.75-17.69-9.75-33.32s3.25-26.69 9.75-33.32c6.56-6.69 16.63-10 30.25-10h55.82v18.63h-48.63c-6.5 0-11.31 1.44-14.44 4.25Z"
        class="st0" />
</svg>