<?xml version="1.0" encoding="UTF-8"?>
<svg id="Layer_1" xmlns="http://www.w3.org/2000/svg" version="1.1" viewBox="0 0 1400 470">
  <!-- Generator: Adobe Illustrator 29.6.1, SVG Export Plug-In . SVG Version: 2.1.1 Build 9)  -->
  <defs>
    <style>
      .st0 {
        fill: #212125;
      }
    </style>
  </defs>
  <g>
    <path class="st0" d="M140.82,198.88v75.76c0,8.7,3.38,16.09,9.05,21.83,5.7,5.7,13.17,9.05,21.83,9.05h11.09l-7.43,7.04-7.32,6.94-34.32,32.53-5.6,5.35-5.6,5.28c-2.08-.92-4.12-1.97-6.2-3.24-5.03-3.06-10.14-7.29-17.14-14.33-17.29-17.29-28.06-41.36-28.06-67.73v-78.47c0-26.3,10.74-50.41,28.06-67.66v-.04c17.18-17.21,41.19-27.95,67.45-27.99h189.01v64.85h-183.94c-8.66.04-16.12,3.34-21.83,9.05-5.67,5.77-9.05,13.17-9.05,21.79Z"/>
    <polygon class="st0" points="355.9 209.09 355.9 366.8 293.83 366.8 293.83 313.79 236.17 366.8 151.89 366.8 252.89 271.15 198.85 271.15 198.85 209.09 355.9 209.09"/>
  </g>
  <g>
    <g>
      <path class="st0" d="M620.99,211.45c5.89-1.16,10.56-3.27,13.72-6.56,4.88-5.08,7.32-11.95,7.32-20.6s-2.31-15.67-6.92-20.93c-4.62-5.26-12.39-7.89-23.31-7.89h-65.81v90.29h29.42v-33.24h15.89l20.36,33.24h32.37l-23.05-34.3ZM575.42,174.93h26.15c3.92,0,6.73.83,8.42,2.48,1.7,1.65,2.54,4.12,2.54,7.42s-.84,5.77-2.51,7.43c-1.67,1.65-4.49,2.48-8.46,2.48h-26.15v-19.8Z"/>
      <path class="st0" d="M745.77,166c-8.7-7.56-22.25-11.34-40.66-11.34s-31.91,3.78-40.63,11.34c-8.72,7.56-13.07,19.09-13.07,34.61s4.36,27.12,13.07,34.68c8.72,7.56,22.26,11.34,40.63,11.34s31.97-3.78,40.66-11.34c8.7-7.56,13.04-19.11,13.04-34.68s-4.35-27.05-13.04-34.61ZM722.86,222.18c-4.44,3.32-10.36,4.98-17.76,4.98s-13.32-1.66-17.75-4.98c-4.43-3.32-6.65-10.51-6.65-21.57s2.22-18.35,6.65-21.6c4.43-3.25,10.35-4.89,17.75-4.89s13.32,1.63,17.76,4.89c4.43,3.25,6.65,10.45,6.65,21.6s-2.22,18.25-6.65,21.57Z"/>
      <path class="st0" d="M842.88,206.97c0,7.09-1.68,12.17-5.05,15.25-3.37,3.08-8.88,4.61-16.55,4.61s-13.23-1.55-16.55-4.65c-3.32-3.1-4.99-8.17-4.99-15.21v-51.5h-29.42v54.31c0,13.2,4.25,22.58,12.74,28.16,8.49,5.57,21.23,8.36,38.22,8.36s29.78-2.79,38.26-8.36c8.47-5.58,12.7-14.96,12.7-28.16v-54.31h-29.36v51.5Z"/>
      <polygon class="st0" points="971.64 223.81 935.03 155.47 887.22 155.47 887.22 245.76 916.5 245.76 916.5 175.41 954.09 245.76 1001.11 245.76 1001.11 155.47 971.82 155.47 971.64 223.81"/>
      <path class="st0" d="M1107.28,235.32c6.8-6.96,10.2-18.55,10.2-34.78s-3.4-27.86-10.2-34.75c-6.8-6.89-17.31-10.33-31.53-10.33h-58.25v90.29h58.25c14.22,0,24.73-3.48,31.53-10.43ZM1046.79,226.3v-51.36h21.47c6.78,0,11.78,1.48,15.02,4.45,3.23,2.97,4.85,10.02,4.85,21.17s-1.62,18.34-4.85,21.3c-3.23,2.97-8.24,4.45-15.02,4.45h-21.47Z"/>
      <polygon class="st0" points="1128.24 245.76 1211.78 245.76 1211.78 226.3 1157.67 226.3 1157.67 209.44 1207.36 209.44 1207.36 191.12 1157.67 191.12 1157.67 174.93 1211.78 174.93 1211.78 155.47 1128.24 155.47 1128.24 245.76"/>
      <path class="st0" d="M1315.74,165.8c-6.8-6.89-17.31-10.33-31.53-10.33h-58.25v90.29h58.25c14.22,0,24.73-3.48,31.53-10.43,6.8-6.96,10.2-18.55,10.2-34.78s-3.4-27.86-10.2-34.75ZM1291.73,221.85c-3.23,2.97-8.24,4.45-15.02,4.45h-21.47v-51.36h21.47c6.78,0,11.78,1.48,15.02,4.45,3.23,2.97,4.85,10.02,4.85,21.17s-1.62,18.34-4.85,21.3Z"/>
      <path class="st0" d="M465.94,179.35c-3.2,3-4.83,10.11-4.83,21.32s1.63,18.19,4.83,21.19c3.26,2.93,8.28,4.43,15.06,4.43h21.45v-14.15h-16.89v-18.78h46.17v52.36h-58.23c-14.22,0-24.71-3.39-31.56-10.3-6.78-6.91-10.17-18.45-10.17-34.76s3.39-27.84,10.17-34.76c6.85-6.98,17.35-10.43,31.56-10.43h58.23v19.43h-50.73c-6.78,0-11.8,1.5-15.06,4.43Z"/>
    </g>
    <g>
      <path class="st0" d="M436,300.4c0-12.58,9.53-21.07,21.74-21.07,10.14,0,15.39,5.56,18.08,10.93l-9.04,4.28c-1.34-3.24-4.82-5.92-9.03-5.92-6.35,0-11.05,5.13-11.05,11.78s4.7,11.78,11.05,11.78c4.21,0,7.69-2.69,9.03-5.92l9.04,4.27c-2.63,5.25-7.94,10.93-18.08,10.93-12.21,0-21.74-8.55-21.74-21.06Z"/>
      <path class="st0" d="M514.87,279.34c12.45,0,21.74,8.67,21.74,21.07s-9.28,21.06-21.74,21.06-21.8-8.67-21.8-21.06,9.35-21.07,21.8-21.07ZM514.87,288.62c-6.78,0-11.11,5.13-11.11,11.78s4.33,11.78,11.11,11.78,11.05-5.19,11.05-11.78-4.33-11.78-11.05-11.78Z"/>
      <path class="st0" d="M591.73,320.73v-27.48l-10.32,27.48h-4.64l-10.25-27.48v27.48h-10.5v-40.73h14.59l8.49,23.08,8.55-23.08h14.59v40.73h-10.5Z"/>
      <path class="st0" d="M660.31,320.73v-27.48l-10.32,27.48h-4.64l-10.25-27.48v27.48h-10.5v-40.73h14.59l8.49,23.08,8.55-23.08h14.59v40.73h-10.5Z"/>
      <path class="st0" d="M692.68,280.01h10.69v23.87c0,4.83,2.56,8.31,8.24,8.31s8.18-3.48,8.18-8.31v-23.87h10.69v24.18c0,10.14-5.8,17.28-18.87,17.28s-18.93-7.2-18.93-17.22v-24.24Z"/>
      <path class="st0" d="M779.97,320.73l-17.22-24.61v24.61h-10.5v-40.73h10.81l16.48,23.45v-23.45h10.56v40.73h-10.14Z"/>
      <path class="st0" d="M812.39,320.73v-40.73h10.5v40.73h-10.5Z"/>
      <path class="st0" d="M842.79,300.4c0-12.58,9.53-21.07,21.74-21.07,10.14,0,15.39,5.56,18.08,10.93l-9.04,4.28c-1.34-3.24-4.82-5.92-9.03-5.92-6.35,0-11.05,5.13-11.05,11.78s4.7,11.78,11.05,11.78c4.21,0,7.69-2.69,9.03-5.92l9.04,4.27c-2.63,5.25-7.94,10.93-18.08,10.93-12.21,0-21.74-8.55-21.74-21.06Z"/>
      <path class="st0" d="M929.81,320.73l-2.07-6.17h-16.92l-2.07,6.17h-11.42l15.33-40.73h13.19l15.39,40.73h-11.42ZM919.25,289.17l-5.68,16.55h11.42l-5.74-16.55Z"/>
      <path class="st0" d="M964.68,320.73v-31.57h-11.42v-9.16h33.28v9.16h-11.36v31.57h-10.5Z"/>
      <path class="st0" d="M1006.89,320.73v-40.73h10.5v40.73h-10.5Z"/>
      <path class="st0" d="M1058.78,279.34c12.45,0,21.74,8.67,21.74,21.07s-9.28,21.06-21.74,21.06-21.8-8.67-21.8-21.06,9.35-21.07,21.8-21.07ZM1058.78,288.62c-6.78,0-11.11,5.13-11.11,11.78s4.33,11.78,11.11,11.78,11.05-5.19,11.05-11.78-4.33-11.78-11.05-11.78Z"/>
      <path class="st0" d="M1126.47,320.73l-17.22-24.61v24.61h-10.5v-40.73h10.81l16.48,23.45v-23.45h10.56v40.73h-10.14Z"/>
      <path class="st0" d="M1161.66,307.12c2.93,2.93,7.45,5.37,13,5.37,3.6,0,5.8-1.53,5.8-3.48,0-2.32-2.62-3.24-6.96-4.15-6.72-1.34-16.12-3.05-16.12-12.7,0-6.84,5.8-12.76,16.24-12.76,6.53,0,12.21,1.95,16.55,5.68l-5.74,7.51c-3.41-2.81-7.88-4.22-11.48-4.22s-4.82,1.41-4.82,3.18c0,2.14,2.51,2.87,7.02,3.72,6.72,1.41,16,3.36,16,12.58,0,8.18-6.04,13.62-16.97,13.62-8.24,0-13.98-2.56-18.08-6.47l5.56-7.88Z"/>
    </g>
  </g>
</svg>